<svg width="20" height="20" viewBox="0 0 20 20" fill="none" xmlns="http://www.w3.org/2000/svg">
<rect width="20" height="20" fill="#E5E5E5"/>
<g clip-path="url(#clip0)">
<path d="M15.6168 19.2C14.5328 20.252 13.3368 20.088 12.1968 19.592C10.9848 19.086 9.8768 19.054 8.5968 19.592C7.0028 20.28 6.1568 20.08 5.1968 19.2C-0.223203 13.62 0.576797 5.12002 6.7368 4.80002C8.2308 4.88002 9.2768 5.62602 10.1568 5.68801C11.4648 5.42202 12.7168 4.66002 14.1168 4.76002C15.7988 4.89602 17.0568 5.56002 17.8968 6.75401C14.4368 8.83401 15.2568 13.394 18.4348 14.674C17.7988 16.344 16.9828 17.994 15.6148 19.214L15.6168 19.2ZM10.0368 4.74002C9.8748 2.26002 11.8848 0.220019 14.1968 0.0200195C14.5148 2.88002 11.5968 5.02002 10.0368 4.74002Z" fill="#19A2A4"/>
</g>
<defs>
<clipPath id="clip0">
<rect width="20" height="20" fill="white"/>
</clipPath>
</defs>
</svg>
